<svg width="159" height="56" fill="none" xmlns="http://www.w3.org/2000/svg"><rect width="159" height="56" rx="4" fill="#E5ECF4"/><g clip-path="url(#a)" fill="#495567"><path d="M60.5 40h-4.76l-.68 3H52.3l3.34-14h4.96l3.34 14h-2.76l-.68-3Zm-4.2-2.52h3.62l-1.62-7.16h-.36l-1.64 7.16ZM66.91 47H64.4V33.08h2.52v1.44h.36c.27-.55.66-.97 1.16-1.26a3.7 3.7 0 0 1 1.94-.46 4.1 4.1 0 0 1 3.04 1.34c.4.43.72.95.94 1.58.24.63.36 1.34.36 2.14v.36c0 .81-.11 1.53-.34 2.16a4.94 4.94 0 0 1-.92 1.6 3.9 3.9 0 0 1-3.08 1.3 4.4 4.4 0 0 1-1.18-.14 3.3 3.3 0 0 1-.88-.38 3.06 3.06 0 0 1-.62-.54c-.16-.21-.3-.43-.42-.66h-.36V47Zm2.64-6.12c.79 0 1.42-.24 1.9-.72.5-.5.74-1.16.74-2v-.24c0-.84-.24-1.5-.74-1.98a2.53 2.53 0 0 0-1.9-.74c-.78 0-1.42.25-1.92.76a2.7 2.7 0 0 0-.72 1.96v.24c0 .81.24 1.47.72 1.98.5.5 1.14.74 1.92.74ZM78.27 47h-2.52V33.08h2.52v1.44h.36c.26-.55.65-.97 1.16-1.26a3.7 3.7 0 0 1 1.94-.46 4.1 4.1 0 0 1 3.04 1.34c.4.43.71.95.94 1.58.24.63.36 1.34.36 2.14v.36c0 .81-.12 1.53-.34 2.16a4.94 4.94 0 0 1-.92 1.6 3.9 3.9 0 0 1-3.08 1.3 4.4 4.4 0 0 1-1.18-.14 3.3 3.3 0 0 1-.88-.38 3.06 3.06 0 0 1-.62-.54c-.16-.21-.3-.43-.42-.66h-.36V47Zm2.64-6.12c.78 0 1.42-.24 1.9-.72.49-.5.74-1.16.74-2v-.24c0-.84-.25-1.5-.74-1.98a2.53 2.53 0 0 0-1.9-.74c-.79 0-1.43.25-1.92.76a2.7 2.7 0 0 0-.72 1.96v.24c0 .81.24 1.47.72 1.98.49.5 1.13.74 1.92.74Zm13.67-7.6c0-.56-.22-1.05-.66-1.46-.43-.41-1.03-.62-1.82-.62-.67 0-1.2.14-1.58.42-.39.27-.58.63-.58 1.1 0 .24.05.46.14.66.1.19.25.36.48.52.24.15.55.28.92.4.39.12.87.23 1.46.34a7.4 7.4 0 0 1 3.36 1.34c.77.63 1.16 1.55 1.16 2.78V39c0 .65-.12 1.25-.36 1.78-.23.52-.56.97-1 1.34a4.6 4.6 0 0 1-1.6.86c-.63.2-1.33.3-2.12.3-.92 0-1.73-.13-2.44-.38a4.68 4.68 0 0 1-2.8-2.7 5.66 5.66 0 0 1-.36-2.04v-.6h2.64v.48c0 .84.24 1.51.72 2.02.5.5 1.25.74 2.28.74.8 0 1.4-.17 1.78-.52.39-.35.58-.76.58-1.24 0-.23-.04-.44-.12-.64a1.3 1.3 0 0 0-.42-.56c-.2-.17-.47-.33-.82-.46a7.21 7.21 0 0 0-1.32-.34 14.3 14.3 0 0 1-1.94-.46c-.59-.2-1.1-.46-1.54-.78a3.35 3.35 0 0 1-1-1.2 3.9 3.9 0 0 1-.36-1.76v-.12a3.65 3.65 0 0 1 1.32-2.86c.43-.36.93-.64 1.52-.84.6-.2 1.27-.3 2-.3.83 0 1.56.12 2.2.36a4.5 4.5 0 0 1 1.6.94 4.06 4.06 0 0 1 1.32 3.02v.72h-2.64v-.48Zm4.11-.2h2.94V29h2.52v4.08h3.58v2.4h-3.58V40c0 .4.18.6.54.6h2.68V43h-4.2c-.45 0-.82-.15-1.12-.44-.28-.3-.42-.67-.42-1.12v-5.96H98.7v-2.4Zm21.36 5.08c0 .83-.14 1.56-.42 2.2a4.8 4.8 0 0 1-2.8 2.58 5.72 5.72 0 0 1-3.9 0 4.8 4.8 0 0 1-2.78-2.58 5.44 5.44 0 0 1-.42-2.2v-.24c0-.81.14-1.53.42-2.16a4.74 4.74 0 0 1 2.78-2.62 5.72 5.72 0 0 1 3.9 0 4.89 4.89 0 0 1 2.8 2.62c.28.63.42 1.35.42 2.16v.24Zm-5.16 2.72c.36 0 .7-.06 1.02-.18a2.36 2.36 0 0 0 1.4-1.34c.14-.33.22-.7.22-1.12v-.4c0-.41-.08-.78-.22-1.1a2.32 2.32 0 0 0-1.4-1.36 2.88 2.88 0 0 0-2.88.52 2.56 2.56 0 0 0-.78 1.94v.4a3 3 0 0 0 .2 1.12 2.47 2.47 0 0 0 1.42 1.34c.32.12.66.18 1.02.18Zm6.3-7.8h4.2v1.44h.37c.19-.55.5-.97.94-1.26.45-.3 1-.46 1.62-.46.99 0 1.78.31 2.38.94.6.61.9 1.55.9 2.82V37l-2.6.24v-.28c0-.55-.14-.98-.42-1.3-.28-.33-.7-.5-1.26-.5s-1 .2-1.32.58c-.32.39-.48.94-.48 1.66v3.2h2.28V43h-6.84v-2.4H123v-5.12h-1.8v-2.4Zm14.06 5.78c.02.3.08.57.2.82.14.24.3.45.52.64a3 3 0 0 0 .76.42c.3.1.6.14.92.14.63 0 1.1-.1 1.44-.32.34-.23.58-.5.72-.8l2.16 1.2a3.58 3.58 0 0 1-1.34 1.54c-.33.23-.74.41-1.24.56-.48.15-1.04.22-1.7.22-.74 0-1.42-.12-2.04-.36a4.6 4.6 0 0 1-1.6-1.04c-.44-.45-.78-1-1.04-1.66a6.4 6.4 0 0 1-.36-2.22v-.12a4.82 4.82 0 0 1 3.04-4.7 5.08 5.08 0 0 1 1.96-.38 4.87 4.87 0 0 1 3.72 1.6 4.95 4.95 0 0 1 1.16 3.12v1.34h-7.28Zm2.38-3.78a2.36 2.36 0 0 0-2.34 1.62h4.68a1.77 1.77 0 0 0-.76-1.16c-.41-.3-.94-.46-1.58-.46ZM56.25 17.5h-2.38l-.34 1.5h-1.38l1.67-7h2.48l1.67 7h-1.38l-.34-1.5Zm-2.1-1.26h1.81l-.81-3.58h-.18l-.82 3.58Zm3.96-2.2h1.36l1.17 4.36h.18l1.17-4.36h1.36L61.93 19h-2.4l-1.42-4.96Zm9.23 4.24c-.13.31-.32.54-.56.67-.24.13-.52.19-.84.19a2.01 2.01 0 0 1-1.54-.67 2.5 2.5 0 0 1-.48-.8 3.13 3.13 0 0 1-.17-1.07v-.16c0-.4.06-.75.17-1.06.12-.31.27-.58.46-.8a1.94 1.94 0 0 1 1.5-.68c.36 0 .64.06.85.18.22.12.4.3.52.56h.18v-.6h1.26v3.46c0 .2.1.3.27.3h.2V19h-.87a.8.8 0 0 1-.56-.2.69.69 0 0 1-.2-.52h-.19Zm-1.12-.34c.37 0 .66-.12.88-.36.22-.25.33-.58.33-1v-.12c0-.42-.1-.75-.33-.99a1.12 1.12 0 0 0-.88-.37c-.36 0-.66.12-.88.37-.22.24-.33.57-.33.99v.12c0 .42.11.75.33 1 .22.24.52.36.88.36Zm3.68-.14h1.68v-2.56h-1.56v-1.2h2.82v3.76h1.44V19H69.9v-1.2Zm3.25-5.23c0 .13-.03.26-.08.38a.91.91 0 0 1-.2.3c-.09.08-.19.15-.31.2a.96.96 0 0 1-.73 0 1.18 1.18 0 0 1-.3-.2 1.06 1.06 0 0 1-.21-.3 1.04 1.04 0 0 1 0-.75.9.9 0 0 1 .21-.3.9.9 0 0 1 .3-.2.86.86 0 0 1 .73 0 .89.89 0 0 1 .51.5c.05.11.08.24.08.37Zm2.3 5.23h1.75v-4.6h-1.68V12h2.94v5.8h1.62V19h-4.62v-1.2Zm8.92.48c-.13.31-.32.54-.56.67-.24.13-.52.19-.84.19a2.01 2.01 0 0 1-1.54-.67 2.5 2.5 0 0 1-.48-.8 3.13 3.13 0 0 1-.17-1.07v-.16c0-.4.06-.75.17-1.06.12-.31.27-.58.46-.8a1.94 1.94 0 0 1 1.5-.68c.36 0 .64.06.85.18.22.12.4.3.52.56h.18v-.6h1.26v3.46c0 .2.1.3.27.3h.2V19h-.87a.8.8 0 0 1-.56-.2.69.69 0 0 1-.2-.52h-.19Zm-1.12-.34c.37 0 .66-.12.88-.36.22-.25.33-.58.33-1v-.12c0-.42-.1-.75-.33-.99a1.12 1.12 0 0 0-.88-.37c-.36 0-.66.12-.88.37-.22.24-.33.57-.33.99v.12c0 .42.11.75.33 1 .22.24.52.36.88.36ZM87.9 19h-1.26v-7h1.26v2.76h.18c.13-.27.33-.48.58-.63.25-.15.58-.23.97-.23a2.06 2.06 0 0 1 1.52.67c.2.21.36.48.47.79.12.31.18.67.18 1.07v.18c0 .4-.06.77-.17 1.08-.11.31-.27.58-.46.8a1.95 1.95 0 0 1-1.54.65 2.2 2.2 0 0 1-.59-.07 1.66 1.66 0 0 1-.44-.19 1.53 1.53 0 0 1-.31-.27 2.5 2.5 0 0 1-.21-.33h-.18V19Zm1.32-1.06c.4 0 .71-.12.95-.36.25-.25.37-.58.37-1v-.12a1.27 1.27 0 0 0-1.32-1.36c-.4 0-.71.13-.96.38-.24.25-.36.57-.36.98v.12c0 .4.12.74.36.99.25.25.57.37.96.37Zm3.28-.14h1.74v-4.6h-1.68V12h2.94v5.8h1.62V19h-4.62v-1.2Zm6.81-.87c.01.15.04.28.1.41.07.12.16.23.26.32.12.09.24.16.38.21.15.05.3.07.46.07.32 0 .56-.05.72-.16.17-.11.29-.25.36-.4l1.08.6a1.79 1.79 0 0 1-.67.77c-.16.11-.37.2-.62.28-.24.07-.52.11-.85.11-.37 0-.71-.06-1.02-.18a2.3 2.3 0 0 1-.8-.52c-.22-.23-.39-.5-.52-.83A3.2 3.2 0 0 1 98 16.5v-.06c0-.38.07-.73.2-1.04a2.42 2.42 0 0 1 2.3-1.5 2.44 2.44 0 0 1 1.86.8 2.48 2.48 0 0 1 .58 1.56v.67H99.3Zm1.2-1.89a1.18 1.18 0 0 0-1.18.81h2.34a.88.88 0 0 0-.38-.58 1.3 1.3 0 0 0-.79-.23Zm13.9 1.54a2.4 2.4 0 0 1-1.61 2.39 2.77 2.77 0 0 1-1.94 0 2.4 2.4 0 0 1-1.39-1.29 2.72 2.72 0 0 1-.21-1.1v-.12c0-.4.07-.77.2-1.08a2.37 2.37 0 0 1 1.4-1.31 2.86 2.86 0 0 1 1.95 0 2.44 2.44 0 0 1 1.4 1.31c.14.31.2.67.2 1.08v.12Zm-2.57 1.36c.18 0 .35-.03.5-.09a1.17 1.17 0 0 0 .7-.67c.08-.17.12-.35.12-.56v-.2c0-.2-.04-.39-.11-.55a1.15 1.15 0 0 0-.7-.68 1.44 1.44 0 0 0-1.44.26 1.29 1.29 0 0 0-.4.97v.2c0 .2.04.4.1.56.08.16.18.3.3.41.12.11.26.2.42.26.16.06.33.09.5.09Zm4.65 1.06h-1.26v-4.96h1.26v.74h.18c.12-.28.3-.5.55-.65.26-.15.55-.23.9-.23.23 0 .46.04.66.12.22.07.4.19.56.35.16.16.29.36.37.61.1.25.14.54.14.88V19h-1.26v-2.82c0-.35-.08-.63-.26-.83-.16-.2-.4-.31-.73-.31-.37 0-.65.13-.84.38-.18.25-.27.58-.27 1V19Zm9.96-4.96h1.47V12h1.26v2.04h1.79v1.2h-1.8v2.26c0 .2.1.3.28.3h1.34V19h-2.1a.76.76 0 0 1-.56-.22.78.78 0 0 1-.21-.56v-2.98h-1.47v-1.2Zm7.1 4.96h-1.27v-7h1.26v2.84h.18c.13-.3.32-.53.56-.69.25-.17.55-.25.91-.25.25 0 .48.04.68.12a1.49 1.49 0 0 1 .9.98c.09.25.13.54.13.88V19h-1.26v-2.82c0-.35-.08-.63-.26-.83-.16-.2-.4-.31-.73-.31-.37 0-.65.13-.84.38-.18.25-.27.58-.27 1V19Zm5.5-2.07c0 .15.04.28.1.41.07.12.15.23.26.32.11.09.24.16.38.21.15.05.3.07.46.07.31 0 .55-.05.72-.16.17-.11.29-.25.36-.4l1.08.6a1.75 1.75 0 0 1-.67.77c-.17.11-.37.2-.62.28-.24.07-.52.11-.85.11-.37 0-.71-.06-1.02-.18-.3-.12-.57-.3-.8-.52-.22-.23-.4-.5-.52-.83a3.2 3.2 0 0 1-.18-1.11v-.06a2.44 2.44 0 0 1 2.5-2.54 2.43 2.43 0 0 1 1.86.8 2.45 2.45 0 0 1 .58 1.56v.67h-3.64Zm1.19-1.89a1.18 1.18 0 0 0-1.17.81h2.34a.88.88 0 0 0-.38-.58c-.2-.15-.47-.23-.8-.23Z"/></g><path fill-rule="evenodd" clip-rule="evenodd" d="M29.55 16.23A6.39 6.39 0 0 1 33.68 14a5.96 5.96 0 0 1-1.31 4.4 5.4 5.4 0 0 1-4.17 2.13c-.3-1.58.45-3.2 1.35-4.3Zm4.47 4.3a7.22 7.22 0 0 1 5.42 2.85c-4.76 2.6-4 9.35.83 11.16a20.1 20.1 0 0 1-1.84 3.4c-1.19 1.8-2.87 4.04-4.95 4.06-.86 0-1.42-.25-2.02-.53a5.93 5.93 0 0 0-2.81-.65c-1.34 0-2.12.34-2.83.66-.62.27-1.2.53-2.06.52-2.08-.02-3.67-2.04-4.86-3.84-3.33-5.04-3.68-10.94-1.63-14.09 1.47-2.23 3.77-3.53 5.93-3.53 1.16 0 2.09.33 2.97.64.81.28 1.58.56 2.45.56a6 6 0 0 0 2.19-.52c.86-.33 1.82-.69 3.2-.69Z" fill="#495567"/><defs><clipPath id="a"><path fill="#fff" transform="translate(52 8)" d="M0 0h91v39H0z"/></clipPath></defs></svg>