<svg width="26" height="20" viewBox="0 0 26 20" fill="none" xmlns="http://www.w3.org/2000/svg">
<path fill-rule="evenodd" clip-rule="evenodd" d="M20.8978 10.2445L19.7737 5.16615C20.0771 5.12508 20.3446 4.97077 20.5328 4.74731C20.755 4.88617 21.0171 4.96681 21.2978 4.96681H22.2625C22.5289 4.96681 22.7448 4.75089 22.7448 4.48447V2.5551C22.7448 2.28868 22.5289 2.07275 22.2625 2.07275H21.2978C21.0088 2.07275 20.7393 2.1583 20.5131 2.30507C20.2922 2.05542 19.9699 1.89753 19.6111 1.89753H16.7638C16.2522 1.89753 15.8144 2.2184 15.6401 2.66928H14.4968C13.8053 2.66928 13.2427 3.23188 13.2427 3.92337C13.2427 4.61485 13.8053 5.17746 14.4968 5.17746H16.9795V6.14949C16.9795 6.41591 17.1954 6.63184 17.4619 6.63184C17.7283 6.63184 17.9442 6.41591 17.9442 6.14949V5.17746H18.7883L19.9991 10.6481L17.7076 14.7295C17.4571 15.1738 16.985 15.4499 16.4749 15.4499H10.7545C10.515 13.4415 8.80268 11.879 6.73105 11.879C5.81441 11.879 4.94959 12.1776 4.23003 12.7425L4.2272 12.7448C3.37048 13.4186 2.83199 14.3855 2.7065 15.4499H1.71582C1.77875 11.9823 4.61911 9.18091 8.10121 9.18091H11.5228C11.7928 9.18091 12.0127 9.40079 12.0127 9.67097V14.0028C12.0127 14.2692 12.2286 14.4852 12.495 14.4852H15.0616C16.1087 14.4852 17.0735 13.9158 17.5796 12.9995C17.8138 12.5756 17.938 12.0955 17.9384 11.6115L17.9408 10.009C17.9412 9.74257 17.7255 9.52627 17.459 9.52589H17.4585C17.1924 9.52589 16.9765 9.74144 16.9761 10.0075L16.9737 11.6103C16.9735 11.9321 16.891 12.2513 16.7353 12.533C16.3988 13.142 15.7575 13.5203 15.0616 13.5203H12.9774V9.67078C12.9774 9.42377 12.9152 9.19089 12.8061 8.98684C13.2395 8.73643 13.5319 8.26841 13.5319 7.73312C13.5319 6.93518 12.8826 6.28609 12.0849 6.28609H10.3243C10.1551 6.28609 9.99289 6.31549 9.84197 6.369V2.13795C9.84197 1.34001 9.19269 0.690918 8.39495 0.690918H5.28327C3.02756 0.690918 1.1517 2.34709 0.806901 4.50708C0.792393 4.55305 0.78448 4.60185 0.78448 4.65254L0.784673 4.65701L0.784857 4.6612C0.76187 4.84585 0.75 5.0337 0.75 5.22419V7.73331C0.75 8.45777 1.28529 9.05957 1.9811 9.16414L3.04923 10.2323C1.63404 11.573 0.75 13.4689 0.75 15.5676V15.9322C0.75 16.1986 0.965924 16.4145 1.23234 16.4145H3.94307C3.93685 16.4456 3.93346 16.478 3.93346 16.511C3.93346 17.211 4.19253 17.8514 4.61911 18.3424H1.23234C0.965924 18.3424 0.75 18.5585 0.75 18.8247C0.75 19.0912 0.965924 19.3071 1.23234 19.3071H6.67528L6.69141 19.3076C6.70462 19.3081 6.71779 19.3086 6.73105 19.3086C8.27361 19.3086 9.52864 18.0536 9.52864 16.511C9.52864 16.478 9.52525 16.4456 9.51903 16.4145H16.4749C17.2344 16.4145 17.9442 16.0505 18.389 15.4483H18.9999C18.8625 15.7826 18.7896 16.1428 18.7896 16.511C18.7896 17.211 19.0487 17.8514 19.4753 18.3424H13.2201C12.9536 18.3424 12.7377 18.5585 12.7377 18.8247C12.7377 19.0912 12.9536 19.3071 13.2201 19.3071H21.5314C21.5501 19.3077 21.5686 19.3086 21.5872 19.3086C23.1298 19.3086 24.3848 18.0536 24.3848 16.511C24.3848 16.1428 24.3119 15.7826 24.1745 15.4483H24.9636C25.23 15.4483 25.446 15.2324 25.446 14.966C25.446 12.42 23.4214 10.3378 20.8978 10.2445ZM10.3243 7.25097H12.0849C12.3507 7.25097 12.5672 7.46727 12.5672 7.73331C12.5672 7.99917 12.3507 8.21565 12.0849 8.21565H10.3243C10.0583 8.21565 9.84197 7.99917 9.84197 7.73331C9.84197 7.46727 10.0583 7.25097 10.3243 7.25097ZM1.71602 5.16487C1.71535 5.18463 1.71469 5.20437 1.71469 5.22419V7.73331C1.71469 7.99917 1.93099 8.21565 2.19684 8.21565H2.19722H8.39476C8.6608 8.21565 8.8771 7.99917 8.8771 7.73331V2.13813C8.8771 1.87209 8.6608 1.65579 8.39476 1.65579H5.28327C3.68231 1.65579 2.3244 2.71544 1.87371 4.17038H6.99502C7.26144 4.17038 7.47736 4.3863 7.47736 4.65272C7.47736 4.91914 7.26144 5.13507 6.99502 5.13507H1.71695L1.71602 5.16487ZM3.36162 9.18034H4.46536C4.23361 9.31261 4.00996 9.4575 3.79479 9.61351L3.36162 9.18034ZM6.7497 18.3433C7.7517 18.3334 8.56395 17.5154 8.56395 16.511C8.56395 16.478 8.56734 16.4456 8.57356 16.4145H4.88854C4.89476 16.4456 4.89815 16.478 4.89815 16.511C4.89815 17.503 5.69043 18.3128 6.67547 18.3424H6.73105C6.7346 18.3424 6.73815 18.3426 6.74169 18.3429L6.7497 18.3433ZM3.67986 15.4499C3.79931 14.6836 4.20177 13.9913 4.82335 13.5031C4.82485 13.5022 4.82617 13.5009 4.82768 13.4999C5.37522 13.0707 6.03335 12.8437 6.73105 12.8437C8.27003 12.8437 9.54955 13.9751 9.78187 15.4499H3.67986ZM21.7801 3.03744H21.2978C21.0318 3.03744 20.8155 3.25393 20.8155 3.51978C20.8155 3.78583 21.0318 4.00213 21.2978 4.00213H21.7801V3.03744ZM14.2074 3.92337C14.2074 3.76378 14.3372 3.63396 14.4968 3.63396H15.5594V3.97311C15.5594 4.05526 15.5677 4.13534 15.5834 4.21277H14.4968C14.3372 4.21277 14.2074 4.08296 14.2074 3.92337ZM16.7638 4.21277H17.4619H19.6111C19.7432 4.21277 19.8508 4.10538 19.8508 3.97311V3.10188C19.8508 2.9698 19.7432 2.86221 19.6111 2.86221H16.7638C16.6317 2.86221 16.5241 2.9698 16.5241 3.10188V3.97311C16.5241 4.10538 16.6317 4.21277 16.7638 4.21277ZM23.4201 16.511C23.4201 17.5154 22.6079 18.3334 21.6059 18.3433C21.5996 18.3432 21.5934 18.3424 21.5872 18.3424H21.5316C20.5466 18.3128 19.7543 17.503 19.7543 16.511C19.7543 16.1278 19.8738 15.7573 20.0938 15.4483H23.0806C23.3007 15.7573 23.4201 16.1278 23.4201 16.511ZM20.7912 11.2077L18.9518 14.4837H24.4504C24.216 12.66 22.6695 11.2422 20.7912 11.2077Z" fill="#495567"/>
</svg>
