<svg width="182" height="56" fill="none" xmlns="http://www.w3.org/2000/svg"><rect width="182" height="56" rx="4" fill="#E5ECF4"/><g clip-path="url(#a)" fill="#495567"><path d="M57.2 35.92h6V43h-2.4v-1.56h-.36c-.16.52-.47.96-.92 1.32-.45.35-1.13.52-2.04.52-.64 0-1.24-.12-1.8-.36a4.07 4.07 0 0 1-1.46-1.06 5.34 5.34 0 0 1-.98-1.76 7.65 7.65 0 0 1-.36-2.46v-3.28c0-.9.13-1.7.38-2.4A4.48 4.48 0 0 1 56 29.1a5.71 5.71 0 0 1 2.12-.38c.8 0 1.51.13 2.14.4a4.47 4.47 0 0 1 2.6 2.7c.23.61.34 1.27.34 1.98v.24h-2.64v-.24c0-.84-.22-1.47-.66-1.9-.43-.44-1.03-.66-1.82-.66-.75 0-1.36.25-1.84.76-.48.5-.72 1.35-.72 2.56v2.96c0 2.16.88 3.24 2.64 3.24.79 0 1.38-.2 1.78-.62.41-.43.62-1 .62-1.7H57.2v-2.52Zm17.43 2.24c0 .83-.14 1.56-.42 2.2a4.8 4.8 0 0 1-2.8 2.58 5.72 5.72 0 0 1-3.9 0 4.8 4.8 0 0 1-2.78-2.58 5.44 5.44 0 0 1-.42-2.2v-.24c0-.81.14-1.53.42-2.16a4.74 4.74 0 0 1 2.78-2.62 5.72 5.72 0 0 1 3.9 0 4.9 4.9 0 0 1 2.8 2.62c.28.63.42 1.35.42 2.16v.24Zm-5.16 2.72c.36 0 .7-.06 1.02-.18a2.36 2.36 0 0 0 1.4-1.34c.15-.33.22-.7.22-1.12v-.4c0-.41-.07-.78-.22-1.1a2.32 2.32 0 0 0-1.4-1.36 2.88 2.88 0 0 0-2.88.52 2.55 2.55 0 0 0-.78 1.94v.4a3 3 0 0 0 .2 1.12 2.47 2.47 0 0 0 1.42 1.34c.32.12.66.18 1.02.18ZM86 38.16c0 .83-.14 1.56-.42 2.2a4.8 4.8 0 0 1-2.8 2.58 5.72 5.72 0 0 1-3.9 0 4.8 4.8 0 0 1-2.78-2.58 5.44 5.44 0 0 1-.42-2.2v-.24c0-.81.14-1.53.42-2.16a4.74 4.74 0 0 1 2.78-2.62 5.72 5.72 0 0 1 3.9 0 4.9 4.9 0 0 1 2.8 2.62c.28.63.42 1.35.42 2.16v.24Zm-5.16 2.72c.36 0 .7-.06 1.02-.18a2.36 2.36 0 0 0 1.4-1.34c.14-.33.22-.7.22-1.12v-.4c0-.41-.08-.78-.22-1.1a2.32 2.32 0 0 0-1.4-1.36 2.88 2.88 0 0 0-2.88.52 2.55 2.55 0 0 0-.78 1.94v.4a3 3 0 0 0 .2 1.12 2.47 2.47 0 0 0 1.42 1.34c.32.12.66.18 1.02.18Zm13.87.68h-.36c-.1.23-.24.45-.4.66-.15.2-.35.38-.6.54-.24.16-.53.29-.88.38-.33.1-.74.14-1.22.14-.61 0-1.19-.1-1.72-.32a4.15 4.15 0 0 1-2.3-2.58 6.7 6.7 0 0 1-.32-2.16v-.36c0-.8.11-1.51.34-2.14.24-.63.56-1.15.96-1.58a4.17 4.17 0 0 1 3.14-1.34c.8 0 1.43.15 1.9.46a3 3 0 0 1 1.1 1.26h.36v-1.44h2.52v12.36c0 .45-.15.83-.44 1.12-.28.3-.65.44-1.1.44H89v-2.4h5.16c.36 0 .54-.2.54-.6v-2.44Zm-2.64-.68c.79 0 1.42-.25 1.9-.74.5-.5.74-1.17.74-1.98v-.24c0-.81-.25-1.47-.74-1.96a2.5 2.5 0 0 0-1.9-.76 2.6 2.6 0 0 0-1.92.74 2.68 2.68 0 0 0-.72 1.98v.24c0 .84.24 1.5.72 2 .5.48 1.13.72 1.92.72Zm6.85-.28h3.48v-9.2h-3.36V29h5.88v11.6h3.24V43h-9.24v-2.4Zm13.64-1.74c.01.3.08.57.2.82.13.24.3.45.52.64.22.17.48.31.76.42.29.1.6.14.92.14.62 0 1.1-.1 1.44-.32.33-.23.57-.5.72-.8l2.16 1.2a3.54 3.54 0 0 1-1.34 1.54c-.34.23-.75.41-1.24.56-.48.15-1.05.22-1.7.22-.75 0-1.43-.12-2.04-.36a4.62 4.62 0 0 1-1.6-1.04 4.9 4.9 0 0 1-1.04-1.66 6.4 6.4 0 0 1-.36-2.22v-.12a4.85 4.85 0 0 1 5-5.08 4.87 4.87 0 0 1 3.72 1.6 4.93 4.93 0 0 1 1.16 3.12v1.34h-7.28Zm2.38-3.78a2.36 2.36 0 0 0-2.34 1.62h4.68a1.77 1.77 0 0 0-.76-1.16c-.42-.3-.94-.46-1.58-.46Zm9.27 2.64V43h-2.64V29h5.48c.72 0 1.35.12 1.88.36.53.23.97.53 1.32.92.36.37.63.8.8 1.3.19.48.28.97.28 1.48v.48a4.42 4.42 0 0 1-1.08 2.88c-.35.39-.79.7-1.32.94s-1.16.36-1.88.36h-2.84Zm0-2.52h2.58a1.9 1.9 0 0 0 1.38-.48c.35-.32.52-.73.52-1.24v-.24c0-.5-.17-.92-.52-1.24a1.9 1.9 0 0 0-1.38-.48h-2.58v3.68Zm8.77 5.4h3.48v-9.2h-3.36V29h5.88v11.6h3.24V43h-9.24v-2.4Zm17.84.96a2.64 2.64 0 0 1-1.12 1.34c-.48.25-1.04.38-1.68.38a4.03 4.03 0 0 1-3.08-1.34c-.4-.44-.72-.97-.96-1.6a6.26 6.26 0 0 1-.34-2.14v-.32c0-.79.1-1.5.34-2.12.22-.63.53-1.16.92-1.6a3.88 3.88 0 0 1 3-1.36c.7 0 1.27.12 1.7.36.44.24.78.61 1.04 1.12h.36v-1.2h2.52V40c0 .4.18.6.54.6h.38V43h-1.72a1.6 1.6 0 0 1-1.12-.4 1.37 1.37 0 0 1-.42-1.04h-.36Zm-2.24-.68c.73 0 1.32-.24 1.76-.72.44-.5.66-1.16.66-2v-.24c0-.84-.22-1.5-.66-1.98a2.24 2.24 0 0 0-1.76-.74c-.74 0-1.32.25-1.76.74a2.82 2.82 0 0 0-.66 1.98v.24c0 .84.22 1.5.66 2 .44.48 1.02.72 1.76.72Zm13.89-7.8h2.52v12.36c0 .45-.15.83-.44 1.12-.28.3-.65.44-1.1.44h-5.9v-2.4h4.38c.36 0 .54-.2.54-.6v-2.44h-.36c-.44 1.15-1.39 1.72-2.84 1.72-.5 0-.95-.08-1.38-.24-.43-.16-.8-.4-1.12-.74a3.61 3.61 0 0 1-.76-1.24c-.17-.5-.26-1.1-.26-1.78v-6.2h2.52v5.68c0 .7.17 1.26.5 1.66.33.39.83.58 1.5.58.76 0 1.31-.24 1.66-.72.36-.5.54-1.16.54-2v-5.2ZM54.6 15.46h3V19h-1.2v-.78h-.18c-.08.26-.23.48-.46.66-.23.17-.57.26-1.02.26-.32 0-.62-.06-.9-.18s-.52-.3-.73-.53c-.2-.24-.37-.53-.49-.88a3.82 3.82 0 0 1-.18-1.23v-1.64c0-.45.06-.85.19-1.2s.31-.65.54-.89c.23-.24.51-.42.83-.54.32-.13.67-.19 1.06-.19.4 0 .76.07 1.07.2a2.24 2.24 0 0 1 1.3 1.35c.11.3.17.64.17.99v.12h-1.32v-.12c0-.42-.11-.74-.33-.95-.21-.22-.52-.33-.91-.33-.37 0-.68.13-.92.38s-.36.67-.36 1.28v1.48c0 1.08.44 1.62 1.32 1.62.4 0 .69-.1.89-.31.2-.21.31-.5.31-.85H54.6v-1.26Zm4.97 1.47c0 .15.04.28.1.41.06.12.15.23.26.32.11.09.24.16.38.21.14.05.3.07.46.07.31 0 .55-.05.72-.16.16-.11.28-.25.36-.4l1.08.6a1.77 1.77 0 0 1-.67.77c-.17.11-.38.2-.62.28-.24.07-.53.11-.85.11-.38 0-.72-.06-1.02-.18a2.3 2.3 0 0 1-.8-.52c-.22-.23-.4-.5-.52-.83a3.2 3.2 0 0 1-.18-1.11v-.06a2.42 2.42 0 0 1 2.5-2.54 2.44 2.44 0 0 1 1.86.8 2.47 2.47 0 0 1 .58 1.56v.67h-3.64Zm1.19-1.89a1.18 1.18 0 0 0-1.17.81h2.34a.88.88 0 0 0-.38-.58 1.3 1.3 0 0 0-.8-.23Zm3.23-1h1.47V12h1.26v2.04h1.8v1.2h-1.8v2.26c0 .2.1.3.27.3h1.34V19h-2.1a.76.76 0 0 1-.56-.22.78.78 0 0 1-.2-.56v-2.98h-1.48v-1.2Zm11.59 3.76h1.68v-2.56H75.7v-1.2h2.82v3.76h1.44V19h-4.38v-1.2Zm3.25-5.23c0 .13-.03.26-.08.38a.91.91 0 0 1-.2.3c-.09.08-.2.15-.31.2a.96.96 0 0 1-.73 0 1.18 1.18 0 0 1-.3-.2 1.06 1.06 0 0 1-.21-.3 1.04 1.04 0 0 1 0-.75.9.9 0 0 1 .2-.3.9.9 0 0 1 .3-.2.86.86 0 0 1 .74 0 .89.89 0 0 1 .5.5c.06.11.09.24.09.37Zm2.2 1.47h1.46V12h1.26v2.04h1.8v1.2h-1.8v2.26c0 .2.1.3.27.3h1.34V19h-2.1a.76.76 0 0 1-.56-.22.78.78 0 0 1-.2-.56v-2.98h-1.48v-1.2Zm16.35 2.54c0 .41-.07.78-.21 1.1a2.4 2.4 0 0 1-1.4 1.29 2.78 2.78 0 0 1-1.95 0 2.4 2.4 0 0 1-1.39-1.29 2.72 2.72 0 0 1-.21-1.1v-.12c0-.4.07-.77.2-1.08a2.37 2.37 0 0 1 1.4-1.31 2.86 2.86 0 0 1 1.95 0 2.45 2.45 0 0 1 1.4 1.31c.14.31.2.67.2 1.08v.12Zm-2.58 1.36c.18 0 .35-.03.5-.09a1.18 1.18 0 0 0 .7-.67c.08-.17.12-.35.12-.56v-.2c0-.2-.04-.39-.11-.55a1.16 1.16 0 0 0-.7-.68 1.44 1.44 0 0 0-1.44.26 1.28 1.28 0 0 0-.4.97v.2c0 .2.04.4.1.56.08.16.18.3.3.41.12.11.26.2.42.26.16.06.33.09.5.09ZM99.45 19H98.2v-4.96h1.26v.74h.18c.12-.28.3-.5.55-.65.26-.15.55-.23.9-.23.23 0 .46.04.66.12.22.07.4.19.56.35.16.16.29.36.37.61.1.25.14.54.14.88V19h-1.26v-2.82c0-.35-.08-.63-.26-.83-.16-.2-.4-.31-.73-.31-.37 0-.65.13-.84.38-.18.25-.27.58-.27 1V19Z"/></g><path fill-rule="evenodd" clip-rule="evenodd" d="M17.35 14.24a2.35 2.35 0 0 1 2.26.1l13.87 8.08-3.98 4-12.15-12.18ZM16 16.42c0-.37.08-.73.24-1.06l12.14 12.18-12.14 12.2A2.38 2.38 0 0 1 16 38.7V16.42Zm13.5 12.24-12.13 12.2c.33.14.67.2 1.01.2.42 0 .84-.1 1.23-.32l13.87-8.1-3.97-3.98Zm9.25-3.17.01.01c.72.43 1.14 1.2 1.14 2.03 0 .84-.42 1.6-1.14 2.04l-3.86 2.25-4.28-4.28 4.27-4.3 3.86 2.25Z" fill="#495567"/><defs><clipPath id="a"><path fill="#fff" transform="translate(52 8)" d="M0 0h114v39H0z"/></clipPath></defs></svg>