<svg width="24" height="24" viewBox="0 0 24 24" fill="none" xmlns="http://www.w3.org/2000/svg">
<path fill-rule="evenodd" clip-rule="evenodd" d="M21.4334 10.8333H22.5002C22.7149 10.8333 22.8891 10.6591 22.8891 10.4444V7.33325C22.8891 7.11847 22.7149 6.94436 22.5002 6.94436H18.8516L18.2224 5.68592V4.22214C18.2224 4.00736 18.0483 3.83325 17.8335 3.83325H15.5002C15.2854 3.83325 15.1113 4.00736 15.1113 4.22214V5.7777C15.1113 5.99247 15.2854 6.16659 15.5002 6.16659H17.5932L18.2224 7.42503V9.66659C18.2224 9.02225 17.7001 8.49992 17.0557 8.49992C16.4114 8.49992 15.8891 9.02225 15.8891 9.66659V8.88881C15.8891 8.67403 15.7149 8.49992 15.5002 8.49992H12.4369L11.2224 8.1962V1.88881C11.2224 1.0297 10.5259 0.333252 9.66683 0.333252H8.11127C7.25216 0.333252 6.55572 1.0297 6.55572 1.88881V6.16659H4.61127C3.96694 6.16659 3.44461 6.68892 3.44461 7.33325V8.49992H0.722385C0.56512 8.49995 0.423355 8.5947 0.363177 8.74C0.302999 8.88529 0.336254 9.05253 0.447441 9.16375L1.33916 10.0555L0.447441 10.9472C0.336254 11.0584 0.302999 11.2257 0.363177 11.371C0.423355 11.5162 0.56512 11.611 0.722385 11.611H4.61127C5.25561 11.611 5.77794 11.0887 5.77794 10.4444V9.2777H6.55572V13.1666H5.38905C4.03705 13.1682 2.89108 14.1618 2.69794 15.4999H1.50016C1.28539 15.4999 1.11127 15.674 1.11127 15.8888V17.4444C1.11127 17.6591 1.28539 17.8333 1.50016 17.8333H2.66683V18.611H0.722385C0.507608 18.611 0.333496 18.7851 0.333496 18.9999V20.5555C0.333496 20.7703 0.507608 20.9444 0.722385 20.9444H5.00016C5.00016 22.4478 6.21894 23.6666 7.72238 23.6666C9.22583 23.6666 10.4446 22.4478 10.4446 20.9444H17.4446C17.4446 22.4478 18.6634 23.6666 20.1668 23.6666C21.6703 23.6666 22.8891 22.4478 22.8891 20.9444H23.2779C23.3965 20.9444 23.5086 20.8904 23.5825 20.7977C23.6563 20.7049 23.6838 20.5835 23.6571 20.468L21.4334 10.8333ZM15.8891 9.66659C15.8891 10.3109 16.4114 10.8333 17.0557 10.8333C17.7001 10.8333 18.2224 10.3109 18.2224 9.66659V17.8333H17.0557V17.4444C17.0557 16.8 16.5334 16.2777 15.8891 16.2777V11.9999C15.8891 11.7851 15.7149 11.611 15.5002 11.611H11.2224V10.5536L12.2946 10.8216C12.3255 10.8293 12.3572 10.8332 12.3891 10.8333H15.5002C15.7149 10.8333 15.8891 10.6591 15.8891 10.4444V9.66659ZM17.4446 5.38881H15.8891V4.61103H17.4446V5.38881ZM2.66683 20.1666V19.3888H1.11127V20.1666H2.66683ZM2.66683 17.0555H1.88905V16.2777H2.66683V17.0555ZM22.1113 7.72214H21.3335V10.0555H22.1113V7.72214ZM19.0002 7.72214H20.5557V10.0555H19.0002V7.72214ZM16.2779 17.4444C16.2779 17.2296 16.1038 17.0555 15.8891 17.0555H14.3335V17.8333H16.2779V17.4444ZM12.2946 9.26603C12.3255 9.27378 12.3572 9.27769 12.3891 9.2777H15.1113V10.0555H12.4369L9.66683 9.36286V8.6092L12.2946 9.26603ZM8.11127 1.11103C7.68172 1.11103 7.3335 1.45925 7.3335 1.88881V3.44436H8.50016V2.66659C8.50016 2.45181 8.67427 2.2777 8.88905 2.2777H10.4446V1.88881C10.4446 1.45925 10.0964 1.11103 9.66683 1.11103H8.11127ZM8.88905 4.22214C9.10383 4.22214 9.27794 4.04803 9.27794 3.83325V3.05547H10.4446V3.93281L7.3335 4.86614V4.22214H8.88905ZM10.4446 6.55547V4.74481L7.3335 5.67814V6.55547H10.4446ZM10.4446 7.33325V8.00175L9.37244 7.73381C9.25625 7.7047 9.13312 7.73076 9.03869 7.80446C8.94426 7.87815 8.88906 7.99125 8.88905 8.11103V9.66658C8.88906 9.84496 9.01041 10.0005 9.18344 10.0438L10.4446 10.3592V11.611H7.3335V7.33325H10.4446ZM15.1113 16.2777V12.3888H7.3335V13.1666H13.9446C14.1594 13.1666 14.3335 13.3407 14.3335 13.5555V16.2777H15.1113ZM5.00016 10.4444C5.00016 10.6591 4.82605 10.8333 4.61127 10.8333H1.66116L2.164 10.3304C2.31581 10.1786 2.31581 9.93239 2.164 9.78053L1.66116 9.2777H5.00016V10.4444ZM4.22238 7.33325V8.49992H6.55572V6.94436H4.61127C4.3965 6.94436 4.22238 7.11847 4.22238 7.33325ZM7.72239 22.8888C6.64903 22.8875 5.77923 22.0177 5.77794 20.9444H6.55572C6.55572 21.5887 7.07805 22.111 7.72239 22.111C8.36672 22.111 8.88905 21.5887 8.88905 20.9444H9.66683C9.66554 22.0177 8.79574 22.8875 7.72239 22.8888ZM7.72238 21.3333C7.93716 21.3333 8.11127 21.1591 8.11127 20.9444H7.3335C7.3335 21.1591 7.50761 21.3333 7.72238 21.3333ZM10.4446 20.1666H5.00016V16.2777C5.00016 16.0629 5.17427 15.8888 5.38905 15.8888H10.0557C10.2705 15.8888 10.4446 16.0629 10.4446 16.2777V20.1666ZM11.2224 20.1666H12.0002V15.8888C11.9989 14.8155 11.1291 13.9456 10.0557 13.9444H5.38905C4.3157 13.9456 3.44589 14.8155 3.44461 15.8888V20.1666H4.22238V16.2777C4.22238 15.6334 4.74472 15.111 5.38905 15.111H10.0557C10.7001 15.111 11.2224 15.6334 11.2224 16.2777V20.1666ZM11.9574 13.9444H13.5557V17.8333H12.7779V15.8888C12.778 15.1565 12.4821 14.4552 11.9574 13.9444ZM12.7779 18.611V20.1666H18.2224V18.611H12.7779ZM20.1668 22.8888C19.0935 22.8875 18.2237 22.0177 18.2224 20.9444H19.0002C19.0002 21.5887 19.5225 22.111 20.1668 22.111C20.8112 22.111 21.3335 21.5887 21.3335 20.9444H22.1113C22.11 22.0177 21.2402 22.8875 20.1668 22.8888ZM20.1668 21.3333C20.3816 21.3333 20.5557 21.1591 20.5557 20.9444H19.7779C19.7779 21.1591 19.9521 21.3333 20.1668 21.3333ZM19.0002 20.1666V17.4444H19.7779V16.6666H19.0002V10.8333H20.6335L22.7872 20.1666H19.0002ZM21.3335 16.6666H20.5557V17.4444H21.3335V16.6666ZM5.77794 16.6666H6.55572V17.4444H5.77794V16.6666ZM8.11127 16.6666H7.3335V17.4444H8.11127V16.6666ZM8.88905 16.6666H9.66683V17.4444H8.88905V16.6666ZM17.0557 9.2777C17.2705 9.2777 17.4446 9.45181 17.4446 9.66659C17.4446 9.88136 17.2705 10.0555 17.0557 10.0555C16.8409 10.0555 16.6668 9.88136 16.6668 9.66659C16.6668 9.45181 16.8409 9.2777 17.0557 9.2777ZM0.333496 3.05547H5.38905V3.83325H0.333496V3.05547ZM5.77794 4.61103H1.11127V5.38881H5.77794V4.61103Z" fill="#495567"/>
</svg>
