<svg width="24" height="28" viewBox="0 0 24 28" fill="none" xmlns="http://www.w3.org/2000/svg">
<path fill-rule="evenodd" clip-rule="evenodd" d="M15.3833 0H3.25641C1.96909 0.00163246 0.925949 1.04478 0.924316 2.33209V25.653C0.925949 26.9403 1.96909 27.9834 3.25641 27.9851H14.9169V27.1507C14.9146 25.0496 15.5366 22.9946 16.7042 21.2477C16.8278 21.0625 16.8029 20.8161 16.6459 20.659L13.3809 17.3941C13.0792 17.092 12.9192 16.6765 12.9403 16.2501C12.9615 15.8235 13.162 15.4261 13.4919 15.1553C14.1276 14.6694 15.0265 14.7388 15.5801 15.3161L20.1841 19.9202L20.8436 19.2607L17.7154 16.1315V2.33209C17.7137 1.04478 16.6706 0.00163246 15.3833 0ZM16.7825 15.1987L16.2396 14.6558C15.3448 13.7416 13.9057 13.6463 12.8982 14.4349C12.3653 14.8729 12.042 15.5159 12.0083 16.2051C11.9747 16.8942 12.2336 17.5655 12.7214 18.0536L15.7205 21.0528C14.602 22.8552 14.0022 24.9312 13.9873 27.0522H3.25641C2.48378 27.0522 1.85715 26.4256 1.85715 25.653V24.2537H13.5176V23.3209H1.85715V3.73134H16.7825V15.1987ZM1.85715 2.79851H16.7825V2.33209C16.7825 1.55947 16.1559 0.932836 15.3833 0.932836H3.25641C2.48378 0.932836 1.85715 1.55947 1.85715 2.33209V2.79851ZM19.0906 10.8503L18.4616 11.5378L21.3221 14.16C21.9954 14.7795 22.3793 15.6524 22.3795 16.5672V27.9851H23.3124V16.5672C23.3112 15.3906 22.8177 14.2687 21.9514 13.4724L19.0906 10.8503ZM3.72282 8.39552H5.5885C6.10377 8.39552 6.52133 7.97796 6.52133 7.46269V5.59702C6.52133 5.08174 6.10377 4.66418 5.5885 4.66418H3.72282C3.20755 4.66418 2.78999 5.08174 2.78999 5.59702V7.46269C2.78999 7.97796 3.20755 8.39552 3.72282 8.39552ZM3.72282 5.59702H5.5885V7.46269H3.72282V5.59702ZM10.2527 8.39552H8.387C7.87173 8.39552 7.45417 7.97796 7.45417 7.46269V5.59702C7.45417 5.08174 7.87173 4.66418 8.387 4.66418H10.2527C10.768 4.66418 11.1855 5.08174 11.1855 5.59702V7.46269C11.1855 7.97796 10.768 8.39552 10.2527 8.39552ZM10.2527 5.59702H8.387V7.46269H10.2527V5.59702ZM13.0512 8.39552H14.9169C15.4321 8.39552 15.8497 7.97796 15.8497 7.46269V5.59702C15.8497 5.08174 15.4321 4.66418 14.9169 4.66418H13.0512C12.5359 4.66418 12.1183 5.08174 12.1183 5.59702V7.46269C12.1183 7.97796 12.5359 8.39552 13.0512 8.39552ZM13.0512 5.59702H14.9169V7.46269H13.0512V5.59702ZM5.5885 13.0597H3.72282C3.20755 13.0597 2.78999 12.6421 2.78999 12.1269V10.2612C2.78999 9.74592 3.20755 9.32836 3.72282 9.32836H5.5885C6.10377 9.32836 6.52133 9.74592 6.52133 10.2612V12.1269C6.52133 12.6421 6.10377 13.0597 5.5885 13.0597ZM5.5885 10.2612H3.72282V12.1269H5.5885V10.2612ZM3.72282 17.7239H5.5885C6.10377 17.7239 6.52133 17.3063 6.52133 16.791V14.9254C6.52133 14.4101 6.10377 13.9925 5.5885 13.9925H3.72282C3.20755 13.9925 2.78999 14.4101 2.78999 14.9254V16.791C2.78999 17.3063 3.20755 17.7239 3.72282 17.7239ZM3.72282 14.9254H5.5885V16.791H3.72282V14.9254ZM10.2527 13.0597H8.387C7.87173 13.0597 7.45417 12.6421 7.45417 12.1269V10.2612C7.45417 9.74592 7.87173 9.32836 8.387 9.32836H10.2527C10.768 9.32836 11.1855 9.74592 11.1855 10.2612V12.1269C11.1855 12.6421 10.768 13.0597 10.2527 13.0597ZM10.2527 10.2612H8.387V12.1269H10.2527V10.2612ZM13.0512 13.0597H14.9169C15.4321 13.0597 15.8497 12.6421 15.8497 12.1269V10.2612C15.8497 9.74592 15.4321 9.32836 14.9169 9.32836H13.0512C12.5359 9.32836 12.1183 9.74592 12.1183 10.2612V12.1269C12.1183 12.6421 12.5359 13.0597 13.0512 13.0597ZM13.0512 10.2612H14.9169V12.1269H13.0512V10.2612ZM10.2527 17.7239H8.387C7.87173 17.7239 7.45417 17.3063 7.45417 16.791V14.9254C7.45417 14.4101 7.87173 13.9925 8.387 13.9925H10.2527C10.768 13.9925 11.1855 14.4101 11.1855 14.9254V16.791C11.1855 17.3063 10.768 17.7239 10.2527 17.7239ZM10.2527 14.9254H8.387V16.791H10.2527V14.9254ZM3.72282 22.3881H5.5885C6.10377 22.3881 6.52133 21.9705 6.52133 21.4552V19.5896C6.52133 19.0743 6.10377 18.6567 5.5885 18.6567H3.72282C3.20755 18.6567 2.78999 19.0743 2.78999 19.5896V21.4552C2.78999 21.9705 3.20755 22.3881 3.72282 22.3881ZM3.72282 19.5896H5.5885V21.4552H3.72282V19.5896ZM10.2527 22.3881H8.387C7.87173 22.3881 7.45417 21.9705 7.45417 21.4552V19.5896C7.45417 19.0743 7.87173 18.6567 8.387 18.6567H10.2527C10.768 18.6567 11.1855 19.0743 11.1855 19.5896V21.4552C11.1855 21.9705 10.768 22.3881 10.2527 22.3881ZM10.2527 19.5896H8.387V21.4552H10.2527V19.5896ZM9.78626 25.1866H8.85342V26.1194H9.78626V25.1866Z" fill="#495567"/>
</svg>
